<?xml version="1.0" encoding="utf-8"?>
<!-- Generator: Adobe Illustrator 22.1.0, SVG Export Plug-In . SVG Version: 6.00 Build 0)  -->
<svg version="1.1" id="Laag_1" xmlns="http://www.w3.org/2000/svg" xmlns:xlink="http://www.w3.org/1999/xlink" x="0px" y="0px"
	 viewBox="0 0 841.9 595.3" style="enable-background:new 0 0 841.9 595.3;" xml:space="preserve">
<style type="text/css">
	.st0{fill:#FFFFFF;}
</style>
<g>
	<path d="M151.9,10.6c56.7,1.7,102.9,24.3,138.2,69.3c6.3,8.1,6.5,13.9,0.3,22.5c-65.8,92-210.8,91.8-276.1-0.3
		C8,93.2,9,87.5,15.1,79.6C49.9,35.1,95.7,12.7,151.9,10.6z M271.5,91.3C218,11.7,87.8,11.6,33.5,91.2
		C86.7,170.7,217,170.8,271.5,91.3z"/>
	<path class="st0" d="M271.5,91.3c-54.5,79.5-184.9,79.4-238-0.1C87.8,11.6,218,11.7,271.5,91.3z M192.6,91.9
		c0.2-22.8-17.4-40.6-40.1-40.7c-22-0.1-39.6,16.9-40.2,38.8c-0.7,22.8,16.6,41.1,39.2,41.5C174.3,132,192.4,114.5,192.6,91.9z"/>
	<path d="M192.6,91.9c-0.2,22.6-18.4,40.1-41.1,39.6c-22.6-0.5-39.8-18.8-39.2-41.5c0.6-21.9,18.2-38.8,40.2-38.8
		C175.3,51.2,192.9,69.1,192.6,91.9z"/>
</g>
</svg>
