<?xml version="1.0" encoding="utf-8"?>
<!-- Generator: Adobe Illustrator 22.1.0, SVG Export Plug-In . SVG Version: 6.00 Build 0)  -->
<svg version="1.1" id="Laag_1" xmlns="http://www.w3.org/2000/svg" xmlns:xlink="http://www.w3.org/1999/xlink" x="0px" y="0px"
	 viewBox="0 0 841.9 595.3" style="enable-background:new 0 0 841.9 595.3;" xml:space="preserve">
<style type="text/css">
	.st0{fill:#FFFFFF;}
</style>
<g>
	<path d="M147.2-708.1C711.6-691,1171.3-466.8,1521.6-18.7c63,80.6,64.3,137.9,3.1,223.5c-654.1,915.1-2096.6,913.3-2747.1-3.1
		c-62.8-88.5-52.8-145.4,8.3-223.4C-867.6-464.3-412.6-687,147.2-708.1z M1336.7,94.4C804.2-697.5-491.4-698.3-1031.1,93
		C-502.2,884.7,794.1,885.4,1336.7,94.4z"/>
	<path class="st0" d="M1336.7,94.4C794.1,885.4-502.2,884.7-1031.1,93C-491.4-698.3,804.2-697.5,1336.7,94.4z M552,100.2
		c2.4-226.3-172.8-404.4-398.4-404.9c-218.8-0.5-394,168.3-400.2,385.7c-6.5,226.6,165,408.5,389.6,413.3
		C369.4,499.1,549.7,325.4,552,100.2z"/>
	<path d="M552,100.2c-2.4,225.2-182.7,398.8-409.1,394C-81.6,489.5-253.1,307.6-246.6,81c6.2-217.4,181.4-386.2,400.2-385.7
		C379.2-304.1,554.4-126.1,552,100.2z"/>
</g>
</svg>
